<svg width="173" height="144" viewBox="0 0 173 144" fill="none" xmlns="http://www.w3.org/2000/svg">
<g style="mix-blend-mode:luminosity" opacity="0.5">
<path fill-rule="evenodd" clip-rule="evenodd" d="M-1.04004 -86.3516C22.9689 -72.7091 31.3726 -42.1866 17.7301 -18.1777C-6.2788 -31.8201 -14.6825 -62.3426 -1.04004 -86.3516ZM85.904 -36.9478C61.8951 -50.5903 31.3726 -42.1866 17.7301 -18.1777C-6.2788 -31.8201 -36.8013 -23.4165 -50.4438 0.592487C-64.0862 24.6012 -55.6826 55.1239 -31.6737 68.7664C-55.6826 55.1239 -86.2052 63.5278 -99.8476 87.5365C-75.8387 101.179 -45.316 92.7751 -31.6737 68.7664C-45.316 92.7751 -36.9124 123.298 -12.9035 136.94C11.1052 150.583 41.628 142.179 55.2704 118.17C41.628 142.179 50.0318 172.702 74.0405 186.344C87.6829 162.335 79.2791 131.813 55.2704 118.17C79.2791 131.813 109.802 123.409 123.444 99.4C137.087 75.391 128.683 44.8685 104.674 31.2261C128.683 44.8685 159.206 36.465 172.848 12.456C148.839 -1.18639 118.317 7.21712 104.674 31.2261C118.317 7.21712 109.913 -23.3054 85.904 -36.9478ZM55.2704 118.17C68.9127 94.1614 60.509 63.6386 36.5002 49.9962C22.8579 74.005 31.2617 104.528 55.2704 118.17ZM36.5002 49.9962C60.509 63.6386 91.0316 55.2351 104.674 31.2261C91.0316 55.2351 99.4356 85.7577 123.444 99.4C99.4356 85.7577 68.9127 94.1614 55.2704 118.17C31.2617 104.528 0.738839 112.932 -12.9035 136.94C0.738839 112.932 -7.66476 82.4088 -31.6737 68.7664C-7.66476 82.4088 22.8579 74.005 36.5002 49.9962ZM36.5002 49.9962C12.4913 36.3538 -18.0313 44.7577 -31.6737 68.7664C-18.0313 44.7577 -26.4349 14.2349 -50.4438 0.592487C-26.4349 14.2349 4.0876 5.83134 17.7301 -18.1777C4.0876 5.83134 12.4913 36.3538 36.5002 49.9962ZM36.5002 49.9962C50.1428 25.9873 80.6654 17.5838 104.674 31.2261C80.6654 17.5838 72.2615 -12.9388 85.904 -36.9478C72.2615 -12.9388 41.739 -4.5352 17.7301 -18.1777C41.739 -4.5352 50.1428 25.9873 36.5002 49.9962Z" fill="url(#paint0_linear_8093_6115)"/>
</g>
<defs>
<linearGradient id="paint0_linear_8093_6115" x1="85.904" y1="-36.9478" x2="-12.9035" y2="136.94" gradientUnits="userSpaceOnUse">
<stop stop-color="#B8DBFC"/>
<stop offset="1" stop-color="#F8FBFE"/>
</linearGradient>
</defs>
</svg>
