<svg width="173" height="144" viewBox="0 0 173 144" fill="none" xmlns="http://www.w3.org/2000/svg">
<g style="mix-blend-mode:luminosity" opacity="0.5">
<path fill-rule="evenodd" clip-rule="evenodd" d="M-1.79004 -86.3516C22.2189 -72.7091 30.6226 -42.1866 16.9801 -18.1777C-7.0288 -31.8201 -15.4325 -62.3426 -1.79004 -86.3516ZM85.154 -36.9478C61.1451 -50.5903 30.6226 -42.1866 16.9801 -18.1777C-7.0288 -31.8201 -37.5513 -23.4165 -51.1938 0.592487C-64.8362 24.6012 -56.4326 55.1239 -32.4237 68.7664C-56.4326 55.1239 -86.9552 63.5278 -100.598 87.5365C-76.5887 101.179 -46.066 92.7751 -32.4237 68.7664C-46.066 92.7751 -37.6624 123.298 -13.6535 136.94C10.3552 150.583 40.878 142.179 54.5204 118.17C40.878 142.179 49.2818 172.702 73.2905 186.344C86.9329 162.335 78.5291 131.813 54.5204 118.17C78.5291 131.813 109.052 123.409 122.694 99.4C136.337 75.391 127.933 44.8685 103.924 31.2261C127.933 44.8685 158.456 36.465 172.098 12.456C148.089 -1.18639 117.567 7.21712 103.924 31.2261C117.567 7.21712 109.163 -23.3054 85.154 -36.9478ZM54.5204 118.17C68.1627 94.1614 59.759 63.6386 35.7502 49.9962C22.1079 74.005 30.5117 104.528 54.5204 118.17ZM35.7502 49.9962C59.759 63.6386 90.2816 55.2351 103.924 31.2261C90.2816 55.2351 98.6856 85.7577 122.694 99.4C98.6856 85.7577 68.1627 94.1614 54.5204 118.17C30.5117 104.528 -0.0111608 112.932 -13.6535 136.94C-0.0111608 112.932 -8.41476 82.4088 -32.4237 68.7664C-8.41476 82.4088 22.1079 74.005 35.7502 49.9962ZM35.7502 49.9962C11.7413 36.3538 -18.7813 44.7577 -32.4237 68.7664C-18.7813 44.7577 -27.1849 14.2349 -51.1938 0.592487C-27.1849 14.2349 3.3376 5.83134 16.9801 -18.1777C3.3376 5.83134 11.7413 36.3538 35.7502 49.9962ZM35.7502 49.9962C49.3928 25.9873 79.9154 17.5838 103.924 31.2261C79.9154 17.5838 71.5115 -12.9388 85.154 -36.9478C71.5115 -12.9388 40.989 -4.5352 16.9801 -18.1777C40.989 -4.5352 49.3928 25.9873 35.7502 49.9962Z" fill="url(#paint0_linear_8093_6112)"/>
</g>
<defs>
<linearGradient id="paint0_linear_8093_6112" x1="85.154" y1="-36.9478" x2="-13.6535" y2="136.94" gradientUnits="userSpaceOnUse">
<stop stop-color="#B8DBFC"/>
<stop offset="1" stop-color="#F8FBFE"/>
</linearGradient>
</defs>
</svg>
