<svg width="48" height="48" viewBox="0 0 48 48" fill="none" xmlns="http://www.w3.org/2000/svg">
<path d="M8.52002 22.0399V31.9799C8.52002 35.6199 8.52002 35.6199 11.96 37.9399L21.42 43.3999C22.84 44.2199 25.16 44.2199 26.58 43.3999L36.04 37.9399C39.48 35.6199 39.48 35.6199 39.48 31.9799V22.0399C39.48 18.3999 39.48 18.3999 36.04 16.0799L26.58 10.6199C25.16 9.79988 22.84 9.79988 21.42 10.6199L11.96 16.0799C8.52002 18.3999 8.52002 18.3999 8.52002 22.0399Z" stroke="#0F172A" stroke-width="1.5" stroke-linecap="round" stroke-linejoin="round"/>
<path d="M35 15.26V10C35 6 33 4 29 4H19C15 4 13 6 13 10V15.12" stroke="#0F172A" stroke-width="1.5" stroke-linecap="round" stroke-linejoin="round"/>
<path d="M25.26 21.9799L26.4 23.7599C26.58 24.0399 26.98 24.3199 27.28 24.3999L29.32 24.9199C30.58 25.2399 30.92 26.3199 30.1 27.3199L28.76 28.9399C28.56 29.1999 28.4 29.6599 28.42 29.9799L28.54 32.0799C28.62 33.3799 27.7 34.0399 26.5 33.5599L24.5401 32.7799C24.24 32.6599 23.74 32.6599 23.44 32.7799L21.48 33.5599C20.28 34.0399 19.36 33.3599 19.44 32.0799L19.56 29.9799C19.58 29.6599 19.42 29.1799 19.22 28.9399L17.88 27.3199C17.06 26.3199 17.4 25.2399 18.66 24.9199L20.7 24.3999C21.02 24.3199 21.42 24.0199 21.58 23.7599L22.72 21.9799C23.44 20.8999 24.56 20.8999 25.26 21.9799Z" fill="#E75E0D" stroke="#E75E0D" stroke-width="1.5" stroke-linecap="round" stroke-linejoin="round"/>
</svg>
