<svg width="17" height="17" viewBox="0 0 17 17" fill="none" xmlns="http://www.w3.org/2000/svg">
<path d="M11.6079 0.032601C10.726 0.114669 9.86226 0.333692 9.04781 0.681787C8.6165 0.877705 8.15801 1.00713 7.68793 1.06567C7.21511 1.0946 6.74063 1.05173 6.28065 0.938493C5.41605 0.746247 4.52679 0.689848 3.64484 0.771323C3.11475 0.800298 2.59635 0.93846 2.12214 1.17715C1.64792 1.41584 1.22811 1.74992 0.889007 2.15845C0.549902 2.56698 0.298811 3.04115 0.151469 3.55127C0.00412692 4.06138 -0.0362915 4.59643 0.0327464 5.12291C0.429449 9.39915 3.04633 13.4025 4.89994 15.9745C5.09502 16.2434 5.37301 16.4408 5.69118 16.5364C6.00935 16.6319 6.35009 16.6203 6.66101 16.5034C6.97194 16.3864 7.23584 16.1705 7.41215 15.8889C7.58846 15.6073 7.66742 15.2756 7.63688 14.9447L7.22934 10.5517C7.1922 10.2292 7.26963 9.90394 7.44809 9.63284C7.62655 9.36173 7.89465 9.16204 8.20548 9.06871C8.39296 9.01857 8.58913 9.00998 8.78027 9.04355C8.97142 9.07711 9.15293 9.15201 9.31212 9.26303C9.47132 9.37404 9.60436 9.51849 9.70195 9.68627C9.79953 9.85404 9.85931 10.0411 9.8771 10.2344L10.2912 14.6985C10.3221 15.0293 10.4607 15.3408 10.6858 15.5852C10.9109 15.8295 11.21 15.9932 11.5372 16.051C11.8643 16.1088 12.2014 16.0575 12.4965 15.9051C12.7917 15.7526 13.0286 15.5074 13.1709 15.2072C14.5203 12.3374 16.3555 7.92104 15.9588 3.64546C15.9298 3.11528 15.7917 2.59679 15.553 2.12248C15.3144 1.64818 14.9803 1.22828 14.5719 0.889106C14.1634 0.549928 13.6893 0.298779 13.1793 0.151395C12.6692 0.00401081 12.1343 -0.0364319 11.6079 0.032601Z" fill="#BFBE18"/>
</svg>
