<svg width="30" height="35" viewBox="0 0 30 35" fill="none" xmlns="http://www.w3.org/2000/svg">
<path d="M2.53125 0.132812C2.15625 0.257812 1.5 0.820312 1.27344 1.19531C0.960938 1.70312 0.867188 2.25 0.476562 5.82812C0.265625 7.84375 0.0703125 9.60938 0.046875 9.74219L0 10H2.48438H4.96875L5.16406 9.58594C5.52344 8.83594 5.92188 8.71094 7.875 8.76562C8.63281 8.78125 9.10156 8.82812 9.22656 8.89844C9.57812 9.08594 9.85156 9.39844 9.9375 9.70312L10.0156 10H14.9922H19.9688L20.1641 9.58594C20.5234 8.83594 20.9219 8.71094 22.875 8.76562C23.6328 8.78125 24.1016 8.82812 24.2266 8.89844C24.5781 9.08594 24.8516 9.39844 24.9375 9.70312L25.0156 10H27.5156H30.0078L29.9688 9.70312C29.9453 9.54688 29.75 7.79688 29.5391 5.82031C29.3203 3.84375 29.1094 2.08594 29.0625 1.91406C28.9297 1.4375 28.6484 0.992188 28.2109 0.601562C27.7266 0.164062 27.2578 0 26.5312 0C26.0625 0 25.8906 0.0390625 25.4922 0.242188C24.6172 0.679688 24.2422 1.3125 23.9141 2.90625C23.75 3.6875 23.6328 4.08594 23.4844 4.30469C22.9531 5.11719 22.0625 5.11719 21.5312 4.30469C21.3828 4.08594 21.2656 3.6875 21.1016 2.89844C20.9766 2.29688 20.8047 1.64844 20.7266 1.45312C20.5 0.953125 20.0625 0.507812 19.5234 0.234375C19.125 0.0390625 18.9531 0 18.4844 0C17.7344 0 17.2812 0.171875 16.7656 0.640625C16.2812 1.07812 16 1.61719 15.875 2.30469C15.8359 2.5625 15.6328 4.34375 15.4219 6.26562C15.2188 8.19531 15.0312 9.76562 15.0078 9.76562C14.9844 9.76562 14.7969 8.17188 14.5859 6.22656C14.3828 4.28906 14.1641 2.45312 14.1016 2.15625C13.9688 1.49219 13.7188 1.0625 13.2109 0.601562C12.7266 0.164062 12.2578 0 11.5312 0C11.0625 0 10.8906 0.0390625 10.4922 0.242188C9.61719 0.679688 9.24219 1.3125 8.91406 2.90625C8.75 3.6875 8.63281 4.08594 8.48438 4.30469C7.95312 5.11719 7.0625 5.11719 6.53125 4.30469C6.38281 4.08594 6.26562 3.6875 6.10156 2.89844C5.97656 2.29688 5.80469 1.64844 5.72656 1.45312C5.5 0.953125 5.0625 0.507812 4.52344 0.234375C4.10938 0.03125 3.96094 0 3.45312 0.0078125C3.125 0.0078125 2.71094 0.0625 2.53125 0.132812Z" fill="#151515"/>
<path d="M0.0078125 11.6242C0.0078125 12.718 0.601562 14.0305 1.49219 14.9289C2.92188 16.382 4.89062 16.6711 6.71875 15.6945C7.32031 15.3742 7.67969 15.3898 8.47656 15.7726C9.26562 16.1555 9.63281 16.2414 10.4766 16.2492C11.7266 16.2492 12.5469 15.8976 13.4922 14.9601C13.9922 14.468 14.1953 14.1945 14.4531 13.6711C14.6328 13.3039 14.8281 12.7805 14.8828 12.4992C14.9453 12.218 15.0078 12.0461 15.0312 12.1086C15.0469 12.1711 15.125 12.4523 15.2031 12.7336C15.6172 14.343 16.9688 15.7336 18.5 16.132C19.5 16.3898 20.7188 16.2258 21.7188 15.6945C22.3203 15.3742 22.6797 15.3898 23.4766 15.7726C24.2656 16.1555 24.6328 16.2414 25.4766 16.2492C26.7266 16.2492 27.5469 15.8976 28.4922 14.9601C28.9922 14.468 29.1953 14.1945 29.4531 13.6711C29.7891 12.9914 30.0078 12.1633 30.0078 11.5773V11.2492H27.5156H25.0234L24.9922 12.0695C24.9609 12.968 24.8828 13.1555 24.3906 13.4914C24.0625 13.718 23.5312 13.7726 22.1406 13.7336C20.9141 13.7023 20.6875 13.6398 20.3516 13.2648C20.1016 12.9914 20.0078 12.6242 20.0078 11.9055V11.2492H15.0156H10.0234L9.99219 12.0695C9.96094 12.968 9.88281 13.1555 9.39062 13.4914C9.0625 13.718 8.53125 13.7726 7.14062 13.7336C5.91406 13.7023 5.6875 13.6398 5.35156 13.2648C5.10156 12.9914 5.00781 12.6242 5.00781 11.9055V11.2492H2.50781H0.0078125V11.6242Z" fill="#151515"/>
<path d="M3.46875 18.8672C2.33594 19.1719 1.17188 20.1328 0.609375 21.2266C0.273438 21.875 0.0078125 22.8203 0.0078125 23.375V23.75H2.50781H5.00781V23.0625C5.00781 22.5078 5.03906 22.3125 5.1875 22.0312C5.52344 21.3672 5.85938 21.25 7.50781 21.25C9.05469 21.25 9.39062 21.3516 9.80469 21.9062C9.9375 22.0781 9.96875 22.2656 9.99219 22.9297L10.0234 23.75H15.0156H20.0078V23.0625C20.0078 22.5078 20.0391 22.3125 20.1797 22.0312C20.5234 21.3672 20.8594 21.25 22.5078 21.25C24.0547 21.25 24.3906 21.3516 24.8047 21.9062C24.9375 22.0781 24.9688 22.2656 24.9922 22.9297L25.0234 23.75H27.5156H30.0078V23.4141C30.0078 22.8359 29.7891 22.0078 29.4531 21.3281C29.1953 20.8047 28.9922 20.5312 28.4922 20.0391C27.5469 19.1016 26.7266 18.75 25.4766 18.75C24.6328 18.7578 24.2656 18.8438 23.4766 19.2266C22.6797 19.6094 22.3203 19.625 21.7188 19.3047C20.7188 18.7734 19.5 18.6094 18.5 18.8672C16.9688 19.2656 15.6172 20.6562 15.2031 22.2656C15.125 22.5469 15.0469 22.8281 15.0312 22.8906C15.0078 22.9531 14.9453 22.7812 14.8828 22.5C14.8281 22.2188 14.6328 21.6953 14.4531 21.3281C14.1953 20.8047 13.9922 20.5312 13.4922 20.0391C12.5469 19.1016 11.7266 18.75 10.4766 18.75C9.63281 18.7578 9.26562 18.8438 8.47656 19.2266C7.67969 19.6094 7.32031 19.625 6.71875 19.3047C5.71875 18.7734 4.45312 18.6016 3.46875 18.8672Z" fill="#151515"/>
<path d="M0.046875 25.25C0.0703125 25.3906 0.265625 27.1562 0.476562 29.1719C0.695312 31.1797 0.929688 32.9922 1 33.1953C1.17188 33.7109 1.36719 34.0078 1.8125 34.4062C2.28906 34.8359 2.75781 35 3.48438 35C3.95312 35 4.125 34.9609 4.52344 34.7656C5.0625 34.4922 5.5 34.0469 5.72656 33.5469C5.80469 33.3516 5.97656 32.7031 6.10156 32.1016C6.26562 31.3125 6.38281 30.9141 6.53125 30.6953C7.0625 29.8828 7.95312 29.8828 8.48438 30.6953C8.63281 30.9141 8.75 31.3125 8.91406 32.0938C9.24219 33.6875 9.61719 34.3203 10.4922 34.7578C10.8906 34.9609 11.0625 35 11.5312 35C12.2578 35 12.7266 34.8359 13.2109 34.3984C13.7188 33.9375 13.9688 33.5078 14.1016 32.8438C14.1641 32.5469 14.3828 30.7109 14.5859 28.7656C14.7969 26.8281 14.9844 25.2344 15.0078 25.2344C15.0312 25.2344 15.2188 26.8047 15.4219 28.7266C15.6328 30.6562 15.8359 32.4375 15.875 32.6953C16 33.3828 16.2812 33.9219 16.7656 34.3594C17.2812 34.8281 17.7344 35 18.4844 35C18.9531 35 19.125 34.9609 19.5234 34.7656C20.0625 34.4922 20.5 34.0469 20.7266 33.5469C20.8047 33.3516 20.9766 32.7031 21.1016 32.1016C21.2656 31.3125 21.3828 30.9141 21.5312 30.6953C22.0625 29.8828 22.9531 29.8828 23.4844 30.6953C23.6328 30.9141 23.75 31.3125 23.9141 32.0938C24.2422 33.6875 24.6172 34.3203 25.4922 34.7578C25.8906 34.9609 26.0625 35 26.5312 35C27.2578 35 27.7266 34.8359 28.2109 34.3984C28.6484 34.0078 28.9297 33.5625 29.0625 33.0859C29.1094 32.9141 29.3203 31.1562 29.5391 29.1797C29.75 27.2031 29.9453 25.4531 29.9688 25.2891L30.0078 25H27.5156H25.0156L24.9297 25.3047C24.8438 25.6406 24.4297 26.0547 24.0859 26.1484C23.9688 26.1875 23.2266 26.2109 22.4297 26.2109C21.2344 26.2109 20.9453 26.1875 20.75 26.0781C20.4219 25.8984 20.1953 25.6328 20.0859 25.2891L19.9922 25H15.0078H10.0156L9.92969 25.3047C9.84375 25.6406 9.42969 26.0547 9.08594 26.1484C8.96875 26.1875 8.22656 26.2109 7.42969 26.2109C6.23438 26.2109 5.94531 26.1875 5.75 26.0781C5.42188 25.8984 5.19531 25.6328 5.08594 25.2891L4.99219 25H2.5H0L0.046875 25.25Z" fill="#151515"/>
</svg>
