<svg width="48" height="48" viewBox="0 0 48 48" fill="none" xmlns="http://www.w3.org/2000/svg">
<path d="M16 4V10" stroke="#0F172A" stroke-width="1.5" stroke-miterlimit="10" stroke-linecap="round" stroke-linejoin="round"/>
<path d="M32 4V10" stroke="#0F172A" stroke-width="1.5" stroke-miterlimit="10" stroke-linecap="round" stroke-linejoin="round"/>
<path d="M7 18.1797H41" stroke="#0F172A" stroke-width="1.5" stroke-miterlimit="10" stroke-linecap="round" stroke-linejoin="round"/>
<path d="M42 17V34C42 40 39 44 32 44H16C9 44 6 40 6 34V17C6 11 9 7 16 7H32C39 7 42 11 42 17Z" stroke="#0F172A" stroke-width="1.5" stroke-miterlimit="10" stroke-linecap="round" stroke-linejoin="round"/>
<mask id="path-5-inside-1_9807_4868" fill="white">
<path fill-rule="evenodd" clip-rule="evenodd" d="M31.3894 27.4004H31.4074Z"/>
</mask>
<path d="M31.3894 25.4004C30.2848 25.4004 29.3894 26.2958 29.3894 27.4004C29.3894 28.505 30.2848 29.4004 31.3894 29.4004V27.4004V25.4004ZM31.4074 29.4004C32.5119 29.4004 33.4074 28.505 33.4074 27.4004C33.4074 26.2958 32.5119 25.4004 31.4074 25.4004V27.4004V29.4004ZM31.3894 27.4004V29.4004H31.4074V27.4004V25.4004H31.3894V27.4004Z" fill="#E75E0D" mask="url(#path-5-inside-1_9807_4868)"/>
<mask id="path-7-inside-2_9807_4868" fill="white">
<path fill-rule="evenodd" clip-rule="evenodd" d="M31.3894 33.4004H31.4074Z"/>
</mask>
<path d="M31.3894 31.4004C30.2848 31.4004 29.3894 32.2958 29.3894 33.4004C29.3894 34.505 30.2848 35.4004 31.3894 35.4004V33.4004V31.4004ZM31.4074 35.4004C32.5119 35.4004 33.4074 34.505 33.4074 33.4004C33.4074 32.2958 32.5119 31.4004 31.4074 31.4004V33.4004V35.4004ZM31.3894 33.4004V35.4004H31.4074V33.4004V31.4004H31.3894V33.4004Z" fill="#E75E0D" mask="url(#path-7-inside-2_9807_4868)"/>
<mask id="path-9-inside-3_9807_4868" fill="white">
<path fill-rule="evenodd" clip-rule="evenodd" d="M23.991 27.4004H24.0089Z"/>
</mask>
<path d="M23.991 25.4004C22.8864 25.4004 21.991 26.2958 21.991 27.4004C21.991 28.505 22.8864 29.4004 23.991 29.4004V27.4004V25.4004ZM24.0089 29.4004C25.1135 29.4004 26.0089 28.505 26.0089 27.4004C26.0089 26.2958 25.1135 25.4004 24.0089 25.4004V27.4004V29.4004ZM23.991 27.4004V29.4004H24.0089V27.4004V25.4004H23.991V27.4004Z" fill="#E75E0D" mask="url(#path-9-inside-3_9807_4868)"/>
<mask id="path-11-inside-4_9807_4868" fill="white">
<path fill-rule="evenodd" clip-rule="evenodd" d="M23.991 33.4004H24.0089Z"/>
</mask>
<path d="M23.991 31.4004C22.8864 31.4004 21.991 32.2958 21.991 33.4004C21.991 34.505 22.8864 35.4004 23.991 35.4004V33.4004V31.4004ZM24.0089 35.4004C25.1135 35.4004 26.0089 34.505 26.0089 33.4004C26.0089 32.2958 25.1135 31.4004 24.0089 31.4004V33.4004V35.4004ZM23.991 33.4004V35.4004H24.0089V33.4004V31.4004H23.991V33.4004Z" fill="#E75E0D" mask="url(#path-11-inside-4_9807_4868)"/>
<mask id="path-13-inside-5_9807_4868" fill="white">
<path fill-rule="evenodd" clip-rule="evenodd" d="M16.5886 27.4004H16.6066Z"/>
</mask>
<path d="M16.5886 25.4004C15.4841 25.4004 14.5886 26.2958 14.5886 27.4004C14.5886 28.505 15.4841 29.4004 16.5886 29.4004V27.4004V25.4004ZM16.6066 29.4004C17.7112 29.4004 18.6066 28.505 18.6066 27.4004C18.6066 26.2958 17.7112 25.4004 16.6066 25.4004V27.4004V29.4004ZM16.5886 27.4004V29.4004H16.6066V27.4004V25.4004H16.5886V27.4004Z" fill="#E75E0D" mask="url(#path-13-inside-5_9807_4868)"/>
<mask id="path-15-inside-6_9807_4868" fill="white">
<path fill-rule="evenodd" clip-rule="evenodd" d="M16.5886 33.4004H16.6066Z"/>
</mask>
<path d="M16.5886 31.4004C15.4841 31.4004 14.5886 32.2958 14.5886 33.4004C14.5886 34.505 15.4841 35.4004 16.5886 35.4004V33.4004V31.4004ZM16.6066 35.4004C17.7112 35.4004 18.6066 34.505 18.6066 33.4004C18.6066 32.2958 17.7112 31.4004 16.6066 31.4004V33.4004V35.4004ZM16.5886 33.4004V35.4004H16.6066V33.4004V31.4004H16.5886V33.4004Z" fill="#E75E0D" mask="url(#path-15-inside-6_9807_4868)"/>
</svg>
